<?xml version="1.0" encoding="utf-8"?>
<!-- Generator: Adobe Illustrator 16.0.0, SVG Export Plug-In . SVG Version: 6.00 Build 0)  -->
<!DOCTYPE svg PUBLIC "-//W3C//DTD SVG 1.1//EN" "http://www.w3.org/Graphics/SVG/1.1/DTD/svg11.dtd">
<svg version="1.1" id="Capa_1" xmlns="http://www.w3.org/2000/svg" xmlns:xlink="http://www.w3.org/1999/xlink" x="0px" y="0px"
	 width="356.771px" height="356.771px" viewBox="0 0 356.771 356.771" enable-background="new 0 0 356.771 356.771"
	 xml:space="preserve">
<g>
	<g>
		<path fill="white" d="M260.188,14.065c-31.129,0-61.58,17.537-81.737,46.941c-20.293-30.708-49.987-48.281-81.677-48.281
			c-47.684,0-96.248,41.887-96.77,121.976c-0.505,76.447,66.377,122.816,102.402,147.802c27.535,19.077,58.727,40.695,61.402,50.326
			c1.834,6.611,7.983,11.217,14.979,11.217h0.019l0,0c6.989-0.106,13.024-4.924,14.646-11.696
			c1.64-6.846,28.757-26.817,45.023-38.785c5.351-3.97,10.93-8.064,16.676-12.363l5.471-4.096
			c38.479-28.69,96.61-72.058,96.147-143.092C356.229,51.604,306.328,14.065,260.188,14.065z"/>
	</g>
</g>
</svg>
